<svg xmlns="http://www.w3.org/2000/svg" version="1.1" xmlns:xlink="http://www.w3.org/1999/xlink" xmlns:svgjs="http://svgjs.dev/svgjs" width="100%" height="100%" viewBox="0 0 1000 600"><rect width="1000" height="600" x="0" y="0" fill="#234e70"/><g><rect width="333.3333333333333" height="333.3333333333333" rx="13.333333333333334" ry="13.333333333333334" y="246.58680201153095" fill="#fbf8be" transform="matrix(0.5571287608456045,0,0,0.5571287608456045,0,69.76456315651065)" x="224.36448669433594"/><path d="M329.59498196182017 445.9662392955916L329.59498196182017 460.3279413584928L260.97796099462533 426.0194308748954L260.97796099462533 410.06198413833846L329.59498196182017 375.753473654741L329.59498196182017 389.6275870673586L280.12689707849364 413.8962039792056Q277.09054957445437 415.33680680958923 274.45313823882896 416.3563103510915Q271.83789002367104 417.39797701306117 270.5524290365595 417.73042382007276L270.5524290365595 417.73042382007276Q271.9930318669431 418.0407075066169 274.6969325639708 419.0823741685866Q277.42299638146596 420.12404083055634 280.12689707849364 421.54248054047247L280.12689707849364 421.54248054047247L329.59498196182017 445.9662392955916ZM370.28647114004036 488.25347314746745L355.1268967403113 488.25347314746745L411.7758326550884 338.2534738238322L426.9354070548175 338.2534738238322L370.28647114004036 488.25347314746745ZM521.0843428005035 426.0194308748954L452.4673218333086 460.3279413584928L452.4673218333086 446.4538279458753L501.9354067166351 422.18521103402827Q504.9717542206744 420.74460820364465 507.60916555629984 419.72510466214237Q510.2244137714577 418.6834380001727 511.5098747585692 418.35099119316106L511.5098747585692 418.35099119316106Q510.0692719281857 418.0407075066169 507.365371231158 416.99904084464725Q504.63930741366283 415.95737418267754 501.9354067166351 414.53893447276135L501.9354067166351 414.53893447276135L452.4673218333086 390.1151757176423L452.4673218333086 375.753473654741L521.0843428005035 410.06198413833846L521.0843428005035 426.0194308748954Z " fill="#234e70" transform="matrix(0.5571287608456045,0,0,0.5571287608456045,0,69.76456315651065)"/><path d="M709.648174100492 488.25347314746745L702.4673230690414 488.25347314746745Q693.0479968703794 488.25347314746745 686.2660820073427 485.15063628202586Q679.484167144306 482.0256362961168 675.9823941104503 476.04159376990793Q672.4584579561274 470.05755124369904 672.9460466064111 461.76854418887643L672.9460466064111 461.76854418887643L674.5417912800667 435.5938989168296Q675.0293799303504 427.12758689826745 671.9930324263112 423.38201953927Q668.9566849222718 419.6364521802726 658.5843445435098 419.6364521802726L658.5843445435098 419.6364521802726L641.0311531332973 419.6364521802726L641.0311531332973 406.87049479102706L658.5843445435098 406.87049479102706Q668.9566849222718 406.87049479102706 671.9930324263112 403.12492743202966Q675.0293799303504 399.3793600730323 674.5417912800667 390.91304805447015L674.5417912800667 390.91304805447015L672.9460466064111 364.73840278242324Q672.4584579561274 356.29425388432855 675.9823941104503 350.37670071952203Q679.484167144306 344.48131067518295 686.2660820073427 341.35631068927387Q693.0479968703794 338.2534738238322 702.4673230690414 338.2534738238322L702.4673230690414 338.2534738238322L709.648174100492 338.2534738238322L709.648174100492 351.0194312130778L702.4673230690414 351.0194312130778Q694.9761883510466 351.0194312130778 690.9868266669073 354.454714885531Q686.9974649827682 357.88999855798426 687.3077486693123 364.73840278242324L687.3077486693123 364.73840278242324L688.903493342968 390.91304805447015Q689.5462238365237 401.28538843323213 683.9611174787289 407.4245728027131Q678.376011120934 413.563757172194 668.1588125854439 413.563757172194L668.1588125854439 413.563757172194L668.1588125854439 412.7658848353662Q678.2208692776619 412.7658848353662 683.8724649968591 418.99372168671687Q689.5462238365237 425.22155853806754 688.903493342968 435.5938989168296L688.903493342968 435.5938989168296L687.3077486693123 461.76854418887643Q686.9974649827682 468.61694841331547 690.9868266669073 472.0522320857687Q694.9761883510466 475.48751575822195 702.4673230690414 475.48751575822195L702.4673230690414 475.48751575822195L709.648174100492 475.48751575822195L709.648174100492 488.25347314746745ZM765.9868263287251 472.29602641091054L765.9868263287251 472.29602641091054Q752.8884221324679 472.29602641091054 744.8432094027871 463.5194307058042Q736.7758335526389 454.7428350006979 736.7758335526389 439.7384024442409L736.7758335526389 439.7384024442409L736.7758335526389 414.0513458224777Q736.7758335526389 398.8917714227486 744.7545569209174 390.1151757176423Q752.7332802891958 381.33858001253594 765.9868263287251 381.33858001253594L765.9868263287251 381.33858001253594Q776.8245922373032 381.33858001253594 783.3627127751981 387.2339700568751Q789.9229964335605 393.1515232216816 789.9229964335605 403.0362749501599L789.9229964335605 403.0362749501599L787.0417907727931 399.6896437595764L790.2332801201046 399.6896437595764L789.9229964335605 379.7428353388803L789.9229964335605 354.2109205603892L804.2846984964617 354.2109205603892L804.2846984964617 470.70028173725484L789.9229964335605 470.70028173725484L789.9229964335605 453.94496266387006L787.0417907727931 453.94496266387006L789.9229964335605 450.5983314732866Q789.9229964335605 460.638225045037 783.3627127751981 466.4671257279737Q776.8245922373032 472.29602641091054 765.9868263287251 472.29602641091054ZM770.774060349692 459.84035270820914L770.774060349692 459.84035270820914Q779.7057978980704 459.84035270820914 784.8033156055817 454.2552463504142Q789.9229964335605 448.6701399926193 789.9229964335605 438.785388264141L789.9229964335605 438.785388264141L789.9229964335605 414.84921815930556Q789.9229964335605 404.9644664308272 784.8033156055817 399.3793600730323Q779.7057978980704 393.79425371523735 770.774060349692 393.79425371523735L770.774060349692 393.79425371523735Q761.6650178375742 393.79425371523735 756.4123582867908 399.20205510929276Q751.1375356155402 404.6320196238156 751.1375356155402 414.84921815930556L751.1375356155402 414.84921815930556L751.1375356155402 438.785388264141Q751.1375356155402 449.0025867996309 756.4123582867908 454.4325513141537Q761.6650178375742 459.84035270820914 770.774060349692 459.84035270820914ZM866.8290244555778 472.29602641091054L866.8290244555778 472.29602641091054Q856.4566840768159 472.29602641091054 848.7217550336793 468.15152288349924Q840.9868259905427 464.0070193560879 836.7536699812615 456.42723215622334Q832.5205139719806 448.8474449563588 832.5205139719806 438.785388264141L832.5205139719806 438.785388264141L832.5205139719806 414.84921815930556Q832.5205139719806 404.6320196238156 836.7536699812615 397.1408849058208Q840.9868259905427 389.6275870673586 848.7217550336793 385.4830835399473Q856.4566840768159 381.33858001253594 866.8290244555778 381.33858001253594L866.8290244555778 381.33858001253594Q877.20136483434 381.33858001253594 884.9362938774766 385.4830835399473Q892.6712229206132 389.6275870673586 896.9043789298942 397.1408849058208Q901.1375349391753 404.6320196238156 901.1375349391753 414.84921815930556L901.1375349391753 414.84921815930556L901.1375349391753 430.3190762455788L846.5719323483377 430.3190762455788L846.5719323483377 438.785388264141Q846.5719323483377 449.15772864290295 851.8245918991208 454.6541825188281Q857.0994145703717 460.17279951522073 866.8290244555778 460.17279951522073L866.8290244555778 460.17279951522073Q875.1180315104004 460.17279951522073 880.2377123383792 457.2251044930512Q885.3352300458905 454.2552463504142 886.4655491897299 448.35985630607513L886.4655491897299 448.35985630607513L900.8272512526312 448.35985630607513Q899.3866484222476 459.3749271783929 890.0559747054551 465.824395234418Q880.7031378681954 472.29602641091054 866.8290244555778 472.29602641091054ZM888.2164357066576 419.48131033700054L887.0861165628182 420.74460820364465L887.0861165628182 414.84921815930556Q887.0861165628182 404.47687778054353 881.8999463734372 398.8917714227486Q876.7137761840563 393.3066650649537 866.8290244555778 393.3066650649537L866.8290244555778 393.3066650649537Q857.0994145703717 393.3066650649537 851.8245918991208 398.8917714227486Q846.5719323483377 404.47687778054353 846.5719323483377 414.84921815930556L846.5719323483377 414.84921815930556L846.5719323483377 419.48131033700054L888.2164357066576 419.48131033700054ZM972.3033147601259 470.70028173725484L952.8440949897133 470.70028173725484L923.477960370355 382.93432468619164L938.1499461198005 382.93432468619164L957.6313290106805 441.9768776114524Q959.3822155276082 447.2517002827031 960.8228183579918 452.1054236650725Q962.2634211883753 456.9813101679094 962.8839885614639 459.68521086493706L962.8839885614639 459.68521086493706Q963.6818608982915 456.9813101679094 965.1224637286753 452.1054236650725Q966.5630665590588 447.2517002827031 968.1588112327145 441.9768776114524L968.1588112327145 441.9768776114524L987.1526054733108 382.93432468619164L1001.6694493794841 382.93432468619164L972.3033147601259 470.70028173725484ZM1031.1907258421143 488.25347314746745L1024.0098748106639 488.25347314746745L1024.0098748106639 475.48751575822195L1031.1907258421143 475.48751575822195Q1038.681860560109 475.48751575822195 1042.6712222442484 472.0522320857687Q1046.6605839283877 468.61694841331547 1046.3503002418436 461.76854418887643L1046.3503002418436 461.76854418887643L1044.754555568188 435.5938989168296Q1044.111825074632 425.22155853806754 1049.7855839142967 418.99372168671687Q1055.437179633494 412.7658848353662 1065.4992363257118 412.7658848353662L1065.4992363257118 412.7658848353662L1065.4992363257118 413.563757172194Q1055.282037790222 413.563757172194 1049.696931432427 407.4245728027131Q1044.111825074632 401.28538843323213 1044.754555568188 390.91304805447015L1044.754555568188 390.91304805447015L1046.3503002418436 364.73840278242324Q1046.6605839283877 357.88999855798426 1042.6712222442484 354.454714885531Q1038.681860560109 351.0194312130778 1031.1907258421143 351.0194312130778L1031.1907258421143 351.0194312130778L1024.0098748106639 351.0194312130778L1024.0098748106639 338.2534738238322L1031.1907258421143 338.2534738238322Q1040.6100520407765 338.2534738238322 1047.3919669038132 341.35631068927387Q1054.17388176685 344.48131067518295 1057.6756548007054 350.37670071952203Q1061.1995909550285 356.29425388432855 1060.7120023047448 364.73840278242324L1060.7120023047448 364.73840278242324L1059.116257631089 390.91304805447015Q1058.6286689808053 399.3793600730323 1061.6650164848447 403.12492743202966Q1064.701363988884 406.87049479102706 1075.073704367646 406.87049479102706L1075.073704367646 406.87049479102706L1092.6268957778586 406.87049479102706L1092.6268957778586 419.6364521802726L1075.073704367646 419.6364521802726Q1064.856505832156 419.6364521802726 1061.7536689667145 423.38201953927Q1058.6286689808053 427.12758689826745 1059.116257631089 435.5938989168296L1059.116257631089 435.5938989168296L1060.7120023047448 461.76854418887643Q1061.1995909550285 470.05755124369904 1057.6756548007054 476.04159376990793Q1054.17388176685 482.0256362961168 1047.3919669038132 485.15063628202586Q1040.6100520407765 488.25347314746745 1031.1907258421143 488.25347314746745L1031.1907258421143 488.25347314746745ZM1135.7120019665624 470.70028173725484L1121.3502999036612 470.70028173725484L1121.3502999036612 354.2109205603892L1135.7120019665624 354.2109205603892L1135.7120019665624 419.14886352998894L1152.6224628832192 419.14886352998894L1178.1543776617102 382.93432468619164L1194.5994130485508 382.93432468619164L1165.0781365859207 424.73396988778387L1195.0648385783672 470.70028173725484L1178.3095195049823 470.70028173725484L1152.7776047264913 431.60453723269035L1135.7120019665624 431.60453723269035L1135.7120019665624 470.70028173725484ZM1242.1393064512101 472.29602641091054L1242.1393064512101 472.29602641091054Q1228.2651930385925 472.29602641091054 1220.286469670314 465.20382786132967Q1212.3077463020356 458.08946619128136 1212.3077463020356 445.9662392955916L1212.3077463020356 445.9662392955916Q1212.3077463020356 433.6878705566297 1220.286469670314 426.66216136845117Q1228.2651930385925 419.6364521802726 1241.829022764666 419.6364521802726L1241.829022764666 419.6364521802726L1268.9566822168129 419.6364521802726L1268.9566822168129 410.8598564751663Q1268.9566822168129 402.72599126361575 1264.0807957139762 398.3376934110626Q1259.2270723316067 393.9493955585094 1250.2953347832283 393.9493955585094L1250.2953347832283 393.9493955585094Q1242.4717532582217 393.9493955585094 1237.196930586971 397.20737426722314Q1231.9442710361877 400.4875160964043 1231.14639869936 406.07262245419923L1231.14639869936 406.07262245419923L1216.7846966364586 406.07262245419923Q1218.2031363463748 394.7472678953373 1227.4673207017647 388.0318423937029Q1236.7315050571547 381.33858001253594 1250.6056184697725 381.33858001253594L1250.6056184697725 381.33858001253594Q1265.7651928695016 381.33858001253594 1274.5417885746078 389.1621615375424Q1283.318384279714 396.98574306254875 1283.318384279714 410.3722678248826L1283.318384279714 410.3722678248826L1283.318384279714 470.70028173725484L1269.266965903357 470.70028173725484L1269.266965903357 453.94496266387006L1266.8733488928735 453.94496266387006L1269.266965903357 451.5513456533865Q1269.266965903357 461.1258136953207 1261.864483667232 466.7109200531156Q1254.4398383106395 472.29602641091054 1242.1393064512101 472.29602641091054ZM1245.6632426055332 460.9706718520486L1245.6632426055332 460.9706718520486Q1255.880441141023 460.9706718520486 1262.418561678918 455.8509910240699Q1268.9566822168129 450.75347331655865 1268.9566822168129 442.7747499482802L1268.9566822168129 442.7747499482802L1268.9566822168129 430.3190762455788L1242.1393064512101 430.3190762455788Q1234.9584554197595 430.3190762455788 1230.8139518923483 434.308437929718Q1226.669448364937 438.2977996138573 1226.669448364937 445.1683669587637L1226.669448364937 445.1683669587637Q1226.669448364937 452.50435983348643 1231.700476711046 456.73751584276755Q1236.7315050571547 460.9706718520486 1245.6632426055332 460.9706718520486ZM1321.4611146041786 470.70028173725484L1308.2075685646494 470.70028173725484L1308.2075685646494 382.93432468619164L1320.818384110623 382.93432468619164L1320.818384110623 393.46180690822575L1323.69958977139 393.46180690822575L1321.4611146041786 397.2960267490929Q1321.4611146041786 389.9600338743702 1325.361823806448 385.6382253832194Q1329.284696129185 381.33858001253594 1335.977958510352 381.33858001253594L1335.977958510352 381.33858001253594Q1343.3139513850747 381.33858001253594 1347.303313069214 386.76854452705885Q1351.2926747533531 392.19850904158164 1351.2926747533531 402.08326077006L1351.2926747533531 402.08326077006L1346.9930293826699 393.46180690822575L1353.6862917638366 393.46180690822575L1350.6499442597974 397.2960267490929Q1350.6499442597974 389.9600338743702 1354.7279584258063 385.6382253832194Q1358.8059725918154 381.33858001253594 1365.4992349729825 381.33858001253594L1365.4992349729825 381.33858001253594Q1373.788242027805 381.33858001253594 1378.3538448440977 387.5664168638867Q1382.897284539923 393.79425371523735 1382.897284539923 403.98928913025986L1382.897284539923 403.98928913025986L1382.897284539923 470.70028173725484L1369.6437385003935 470.70028173725484L1369.6437385003935 403.8341472869878Q1369.6437385003935 398.40418277246494 1367.3387739717798 395.38999838889305Q1365.0116463226987 392.3536508848537 1360.5568591087433 392.3536508848537L1360.5568591087433 392.3536508848537Q1356.2350506175924 392.3536508848537 1353.7749442457064 395.3013459070233Q1351.2926747533531 398.24904092919286 1351.2926747533531 403.67900544371565L1351.2926747533531 403.67900544371565L1351.2926747533531 470.70028173725484L1339.8121783512192 470.70028173725484L1339.8121783512192 403.8341472869878Q1339.8121783512192 398.24904092919286 1337.3299088588658 395.3013459070233Q1334.86980248698 392.3536508848537 1330.392852152557 392.3536508848537L1330.392852152557 392.3536508848537Q1325.9159018181342 392.3536508848537 1323.69958977139 395.3013459070233Q1321.4611146041786 398.24904092919286 1321.4611146041786 403.67900544371565L1321.4611146041786 403.67900544371565L1321.4611146041786 470.70028173725484ZM1433.6286672898934 472.29602641091054L1433.6286672898934 472.29602641091054Q1419.7545538772758 472.29602641091054 1411.7758305089976 465.20382786132967Q1403.797107140719 458.08946619128136 1403.797107140719 445.9662392955916L1403.797107140719 445.9662392955916Q1403.797107140719 433.6878705566297 1411.7758305089976 426.66216136845117Q1419.7545538772758 419.6364521802726 1433.3183836033493 419.6364521802726L1433.3183836033493 419.6364521802726L1460.4460430554961 419.6364521802726L1460.4460430554961 410.8598564751663Q1460.4460430554961 402.72599126361575 1455.5701565526595 398.3376934110626Q1450.71643317029 393.9493955585094 1441.7846956219116 393.9493955585094L1441.7846956219116 393.9493955585094Q1433.9611140969052 393.9493955585094 1428.6862914256542 397.20737426722314Q1423.4336318748708 400.4875160964043 1422.6357595380432 406.07262245419923L1422.6357595380432 406.07262245419923L1408.274057475142 406.07262245419923Q1409.692497185058 394.7472678953373 1418.956681540448 388.0318423937029Q1428.2208658958382 381.33858001253594 1442.0949793084558 381.33858001253594L1442.0949793084558 381.33858001253594Q1457.2545537081846 381.33858001253594 1466.0311494132911 389.1621615375424Q1474.8077451183974 396.98574306254875 1474.8077451183974 410.3722678248826L1474.8077451183974 410.3722678248826L1474.8077451183974 470.70028173725484L1460.7563267420403 470.70028173725484L1460.7563267420403 453.94496266387006L1458.3627097315566 453.94496266387006L1460.7563267420403 451.5513456533865Q1460.7563267420403 461.1258136953207 1453.353844505915 466.7109200531156Q1445.9291991493228 472.29602641091054 1433.6286672898934 472.29602641091054ZM1437.1526034442165 460.9706718520486L1437.1526034442165 460.9706718520486Q1447.3698019797064 460.9706718520486 1453.9079225176013 455.8509910240699Q1460.4460430554961 450.75347331655865 1460.4460430554961 442.7747499482802L1460.4460430554961 442.7747499482802L1460.4460430554961 430.3190762455788L1433.6286672898934 430.3190762455788Q1426.447816258443 430.3190762455788 1422.3033127310316 434.308437929718Q1418.1588092036202 438.2977996138573 1418.1588092036202 445.1683669587637L1418.1588092036202 445.1683669587637Q1418.1588092036202 452.50435983348643 1423.1898375497292 456.73751584276755Q1428.2208658958382 460.9706718520486 1437.1526034442165 460.9706718520486ZM1536.8866455476973 472.29602641091054L1536.8866455476973 472.29602641091054Q1521.7270711479684 472.29602641091054 1512.6180286358504 463.2756363806624Q1503.5311492442 454.2552463504142 1503.5311492442 438.785388264141L1503.5311492442 438.785388264141L1503.5311492442 382.93432468619164L1517.8928513071012 382.93432468619164L1517.8928513071012 438.785388264141Q1517.8928513071012 448.6701399926193 1522.9903690146123 454.1887569890119Q1528.110049842591 459.68521086493706 1536.8866455476973 459.68521086493706L1536.8866455476973 459.68521086493706Q1545.8183830960759 459.68521086493706 1551.0045532854567 454.1887569890119Q1556.190723474838 448.6701399926193 1556.190723474838 438.785388264141L1556.190723474838 438.785388264141L1556.190723474838 382.93432468619164L1570.5524255377388 382.93432468619164L1570.5524255377388 438.785388264141Q1570.5524255377388 454.2552463504142 1561.288241182349 463.2756363806624Q1552.0462199474266 472.29602641091054 1536.8866455476973 472.29602641091054Z " fill="#fbf8be" transform="matrix(0.5571287608456045,0,0,0.5571287608456045,0,69.76456315651065)"/></g></svg>